HIERARCHY
ROOT Hips
{
	OFFSET 0.000000 71.427986 0.000000
	CHANNELS 6 Xposition Yposition Zposition Xrotation Yrotation Zrotation
	JOINT Pelvis
	{
		OFFSET 0.000000 0.000000 0.000000
		CHANNELS 3 Xrotation Yrotation Zrotation
		JOINT LeftUpLeg
		{
			OFFSET 6.797100 -2.508499 -1.318700
			CHANNELS 3 Xrotation Yrotation Zrotation
			JOINT LeftLeg
			{
				OFFSET 0.069008 -29.241863 0.690200
				CHANNELS 3 Xrotation Yrotation Zrotation
				JOINT LeftFoot
				{
					OFFSET -0.069008 -29.568123 -0.266800
					CHANNELS 3 Xrotation Yrotation Zrotation
					JOINT LeftToeBase
					{
						OFFSET 3.145500 -8.631000 16.059900
						CHANNELS 3 Xrotation Yrotation Zrotation
						End Site
						{
							OFFSET 0.000000 18.501587 0.000000
						}
					}
				}
			}
			JOINT Left_ShortSleeve
			{
				OFFSET 0.265923 -10.480953 1.153800
				CHANNELS 3 Xrotation Yrotation Zrotation
				End Site
				{
					OFFSET 1.725763 19.823879 0.000000
				}
			}
		}
		JOINT RightUpLeg
		{
			OFFSET -6.797100 -2.508499 -1.318700
			CHANNELS 3 Xrotation Yrotation Zrotation
			JOINT RightLeg
			{
				OFFSET -0.082453 -29.241932 0.688000
				CHANNELS 3 Xrotation Yrotation Zrotation
				JOINT RightFoot
				{
					OFFSET 0.082453 -29.568058 -0.264600
					CHANNELS 3 Xrotation Yrotation Zrotation
					JOINT RightToeBase
					{
						OFFSET -3.115300 -8.682800 16.113400
						CHANNELS 3 Xrotation Yrotation Zrotation
						End Site
						{
							OFFSET 0.000000 18.567114 0.000000
						}
					}
				}
			}
			JOINT Right_ShortSleeve
			{
				OFFSET -0.265923 -10.480953 1.153800
				CHANNELS 3 Xrotation Yrotation Zrotation
				End Site
				{
					OFFSET -1.725766 19.823910 0.000000
				}
			}
		}
	}
	JOINT Spine
	{
		OFFSET 0.000000 13.368103 0.470500
		CHANNELS 3 Xrotation Yrotation Zrotation
		JOINT Spine1
		{
			OFFSET 0.147000 13.837402 0.538800
			CHANNELS 3 Xrotation Yrotation Zrotation
			JOINT Spine2
			{
				OFFSET 0.168000 16.242897 -1.435500
				CHANNELS 3 Xrotation Yrotation Zrotation
				JOINT Neck
				{
					OFFSET 0.217200 18.631500 -1.679100
					CHANNELS 3 Xrotation Yrotation Zrotation
					JOINT Head
					{
						OFFSET 0.000000 6.599396 1.385900
						CHANNELS 3 Xrotation Yrotation Zrotation
						JOINT Hat
						{
							OFFSET -0.532200 27.220596 -10.096100
							CHANNELS 3 Xrotation Yrotation Zrotation
							End Site
							{
								OFFSET 0.000000 22.029861 0.000000
							}
						}
						JOINT HairD
						{
							OFFSET -10.777400 17.437393 -1.325900
							CHANNELS 3 Xrotation Yrotation Zrotation
							JOINT HairD1
							{
								OFFSET -3.290299 -11.051193 1.062200
								CHANNELS 3 Xrotation Yrotation Zrotation
								End Site
								{
									OFFSET 0.000000 11.579437 0.000000
								}
							}
						}
						JOINT HairB
						{
							OFFSET -10.777400 17.437393 1.467900
							CHANNELS 3 Xrotation Yrotation Zrotation
							JOINT HairB1
							{
								OFFSET -1.561200 -12.956299 3.590200
								CHANNELS 3 Xrotation Yrotation Zrotation
								End Site
								{
									OFFSET 0.000000 13.534866 0.000000
								}
							}
						}
						JOINT HairA
						{
							OFFSET 9.713100 17.437393 1.467900
							CHANNELS 3 Xrotation Yrotation Zrotation
							JOINT HairA1
							{
								OFFSET 1.561200 -12.956299 3.590200
								CHANNELS 3 Xrotation Yrotation Zrotation
								End Site
								{
									OFFSET 0.000000 13.534866 0.000000
								}
							}
						}
						JOINT HairC
						{
							OFFSET 9.713100 17.437393 -1.325900
							CHANNELS 3 Xrotation Yrotation Zrotation
							JOINT HairC1
							{
								OFFSET 3.290300 -11.051193 1.062200
								CHANNELS 3 Xrotation Yrotation Zrotation
								End Site
								{
									OFFSET 0.000000 11.579437 0.000000
								}
							}
						}
					}
				}
				JOINT LeftShoulder
				{
					OFFSET 5.101800 15.108002 -2.763700
					CHANNELS 3 Xrotation Yrotation Zrotation
					JOINT LeftArm
					{
						OFFSET 9.825497 2.506317 -1.597400
						CHANNELS 3 Xrotation Yrotation Zrotation
						JOINT LeftForeArm
						{
							OFFSET 21.966244 0.000000 0.000000
							CHANNELS 3 Xrotation Yrotation Zrotation
							JOINT LeftHand
							{
								OFFSET 33.879036 0.000000 0.000000
								CHANNELS 3 Xrotation Yrotation Zrotation
								JOINT LeftHandThumb1
								{
									OFFSET 6.715286 -2.359680 3.363841
									CHANNELS 3 Xrotation Yrotation Zrotation
									JOINT LeftHandThumb2
									{
										OFFSET 2.507072 -1.447464 1.447461
										CHANNELS 3 Xrotation Yrotation Zrotation
										JOINT LeftHandThumb3
										{
											OFFSET 2.898338 -1.673355 1.673357
											CHANNELS 3 Xrotation Yrotation Zrotation
											End Site
											{
												OFFSET -0.295959 3.727692 -0.131651
											}
										}
									}
								}
								JOINT LeftHandIndex1
								{
									OFFSET 14.190811 -0.254547 3.840278
									CHANNELS 3 Xrotation Yrotation Zrotation
									JOINT LeftHandIndex2
									{
										OFFSET 3.551727 0.000000 -0.000000
										CHANNELS 3 Xrotation Yrotation Zrotation
										JOINT LeftHandIndex3
										{
											OFFSET 2.894196 0.000000 0.000000
											CHANNELS 3 Xrotation Yrotation Zrotation
											End Site
											{
												OFFSET -1.000603 2.690872 0.366626
											}
										}
									}
								}
								JOINT LeftHandMiddle1
								{
									OFFSET 13.776489 0.000000 0.000000
									CHANNELS 3 Xrotation Yrotation Zrotation
									JOINT LeftHandMiddle2
									{
										OFFSET 3.438232 0.000000 0.000000
										CHANNELS 3 Xrotation Yrotation Zrotation
										JOINT LeftHandMiddle3
										{
											OFFSET 3.691551 0.000000 0.000000
											CHANNELS 3 Xrotation Yrotation Zrotation
											End Site
											{
												OFFSET -1.082298 3.499527 0.457670
											}
										}
									}
								}
								JOINT LeftHandRing1
								{
									OFFSET 13.966164 -0.268127 -3.067488
									CHANNELS 3 Xrotation Yrotation Zrotation
									JOINT LeftHandRing2
									{
										OFFSET 3.162567 0.000000 0.000000
										CHANNELS 3 Xrotation Yrotation Zrotation
										JOINT LeftHandRing3
										{
											OFFSET 3.324348 0.000000 0.000000
											CHANNELS 3 Xrotation Yrotation Zrotation
											End Site
											{
												OFFSET -0.861900 3.184998 0.405154
											}
										}
									}
								}
								JOINT LeftHandPinky1
								{
									OFFSET 13.131393 -0.168503 -5.746925
									CHANNELS 3 Xrotation Yrotation Zrotation
									JOINT LeftHandPinky2
									{
										OFFSET 2.849182 0.000000 0.000000
										CHANNELS 3 Xrotation Yrotation Zrotation
										JOINT LeftHandPinky3
										{
											OFFSET 2.805038 0.000000 0.000000
											CHANNELS 3 Xrotation Yrotation Zrotation
											End Site
											{
												OFFSET -0.882500 2.642609 0.325652
											}
										}
									}
								}
							}
							JOINT Left_Sleeve
							{
								OFFSET 6.592125 -0.646545 0.805568
								CHANNELS 3 Xrotation Yrotation Zrotation
								End Site
								{
									OFFSET -0.000179 20.275787 -0.000000
								}
							}
						}
					}
				}
				JOINT RightShoulder
				{
					OFFSET -5.731700 15.108002 -2.763700
					CHANNELS 3 Xrotation Yrotation Zrotation
					JOINT RightArm
					{
						OFFSET -9.825497 2.506317 -1.597400
						CHANNELS 3 Xrotation Yrotation Zrotation
						JOINT RightForeArm
						{
							OFFSET -21.966242 0.000000 0.000000
							CHANNELS 3 Xrotation Yrotation Zrotation
							JOINT RightHand
							{
								OFFSET -33.879032 0.000000 0.000000
								CHANNELS 3 Xrotation Yrotation Zrotation
								JOINT RightHandThumb1
								{
									OFFSET -6.715286 -2.359680 3.363841
									CHANNELS 3 Xrotation Yrotation Zrotation
									JOINT RightHandThumb2
									{
										OFFSET -2.507072 -1.447464 1.447461
										CHANNELS 3 Xrotation Yrotation Zrotation
										JOINT RightHandThumb3
										{
											OFFSET -2.898338 -1.673355 1.673357
											CHANNELS 3 Xrotation Yrotation Zrotation
											End Site
											{
												OFFSET 0.295959 3.727692 -0.131651
											}
										}
									}
								}
								JOINT RightHandIndex1
								{
									OFFSET -14.190811 -0.254547 3.840278
									CHANNELS 3 Xrotation Yrotation Zrotation
									JOINT RightHandIndex2
									{
										OFFSET -3.551727 0.000000 -0.000000
										CHANNELS 3 Xrotation Yrotation Zrotation
										JOINT RightHandIndex3
										{
											OFFSET -2.894196 0.000000 0.000000
											CHANNELS 3 Xrotation Yrotation Zrotation
											End Site
											{
												OFFSET 1.000603 2.690872 0.366626
											}
										}
									}
								}
								JOINT RightHandMiddle1
								{
									OFFSET -13.776489 0.000000 0.000000
									CHANNELS 3 Xrotation Yrotation Zrotation
									JOINT RightHandMiddle2
									{
										OFFSET -3.438232 0.000000 0.000000
										CHANNELS 3 Xrotation Yrotation Zrotation
										JOINT RightHandMiddle3
										{
											OFFSET -3.691551 0.000000 0.000000
											CHANNELS 3 Xrotation Yrotation Zrotation
											End Site
											{
												OFFSET 1.082298 3.499527 0.457670
											}
										}
									}
								}
								JOINT RightHandRing1
								{
									OFFSET -13.966164 -0.268127 -3.067488
									CHANNELS 3 Xrotation Yrotation Zrotation
									JOINT RightHandRing2
									{
										OFFSET -3.162567 0.000000 0.000000
										CHANNELS 3 Xrotation Yrotation Zrotation
										JOINT RightHandRing3
										{
											OFFSET -3.324348 0.000000 0.000000
											CHANNELS 3 Xrotation Yrotation Zrotation
											End Site
											{
												OFFSET 0.861900 3.184998 0.405154
											}
										}
									}
								}
								JOINT RightHandPinky1
								{
									OFFSET -13.131393 -0.168503 -5.746925
									CHANNELS 3 Xrotation Yrotation Zrotation
									JOINT RightHandPinky2
									{
										OFFSET -2.849182 0.000000 0.000000
										CHANNELS 3 Xrotation Yrotation Zrotation
										JOINT RightHandPinky3
										{
											OFFSET -2.805038 0.000000 0.000000
											CHANNELS 3 Xrotation Yrotation Zrotation
											End Site
											{
												OFFSET 0.882500 2.642609 0.325652
											}
										}
									}
								}
							}
							JOINT Right_Sleeve
							{
								OFFSET -6.592125 -0.646545 0.805568
								CHANNELS 3 Xrotation Yrotation Zrotation
								End Site
								{
									OFFSET 0.000179 20.275787 -0.000000
								}
							}
						}
					}
				}
				JOINT Bind_Right_JacketString
				{
					OFFSET -3.534800 11.969597 7.200700
					CHANNELS 3 Xrotation Yrotation Zrotation
					JOINT Bind_Right_JacketString1
					{
						OFFSET -0.319900 -6.102600 2.794100
						CHANNELS 3 Xrotation Yrotation Zrotation
						End Site
						{
							OFFSET 0.000000 6.719452 0.000000
						}
					}
				}
				JOINT Bind_Left_JacketString
				{
					OFFSET 2.904800 11.969597 7.200700
					CHANNELS 3 Xrotation Yrotation Zrotation
					JOINT Bind_Left_JacketString1
					{
						OFFSET 0.364800 -5.904503 3.186800
						CHANNELS 3 Xrotation Yrotation Zrotation
						End Site
						{
							OFFSET 0.000000 6.719513 0.000000
						}
					}
				}
				JOINT HairE
				{
					OFFSET 5.915200 17.612701 -11.592200
					CHANNELS 3 Xrotation Yrotation Zrotation
					JOINT HairE1
					{
						OFFSET 0.289200 -7.171898 -1.284500
						CHANNELS 3 Xrotation Yrotation Zrotation
						End Site
						{
							OFFSET 0.000000 7.291756 0.000000
						}
					}
				}
				JOINT HairF
				{
					OFFSET -0.864800 17.612701 -11.592200
					CHANNELS 3 Xrotation Yrotation Zrotation
					JOINT HairF1
					{
						OFFSET 0.000000 -14.087097 -2.127501
						CHANNELS 3 Xrotation Yrotation Zrotation
						End Site
						{
							OFFSET 0.000000 14.246841 0.000000
						}
					}
				}
				JOINT HairG
				{
					OFFSET -8.087700 17.612701 -11.592200
					CHANNELS 3 Xrotation Yrotation Zrotation
					JOINT HairG1
					{
						OFFSET -0.293600 -6.081398 -0.910100
						CHANNELS 3 Xrotation Yrotation Zrotation
						End Site
						{
							OFFSET 0.000000 6.156120 0.000000
						}
					}
				}
			}
		}
	}
	JOINT Pouch
	{
		OFFSET 0.000000 4.394501 10.847300
		CHANNELS 3 Xrotation Yrotation Zrotation
		End Site
		{
			OFFSET 0.000000 21.880577 0.000000
		}
	}
	JOINT Bag
	{
		OFFSET -13.229000 4.813004 -0.593300
		CHANNELS 3 Xrotation Yrotation Zrotation
		End Site
		{
			OFFSET 0.000000 21.880577 0.000000
		}
	}
	JOINT OccupyGuyFacialAnim_Joint
	{
		OFFSET 1.000000 -70.206398 -1.655000
		CHANNELS 3 Xrotation Yrotation Zrotation
		End Site
		{
			OFFSET 0.000000 21.880577 0.000000
		}
	}
}
MOTION
Frames: 4
Frame Time: 0.033333
-1.493039 61.793060 0.644001 -7.127795 -57.122945 -6.297714 -0.000000 0.000001 0.000000 -34.175558 12.871016 31.334097 52.407434 5.138800 -1.105146 -11.268760 2.470711 -16.815717 0.000000 0.000000 -0.000000 -0.000002 0.000002 0.000001 -27.435410 -7.723400 -19.055686 59.727621 9.766323 -2.092151 -29.637673 -0.838673 9.718385 0.000000 -0.000000 0.000000 0.000000 -0.000000 -0.000001 18.849329 -4.055354 -3.306662 5.159834 -0.896955 -1.037388 5.167281 -0.854166 -1.038251 4.660625 8.145571 -0.840220 -17.750304 45.399762 -8.147633 -0.000000 0.000000 -0.000000 -0.000000 0.000000 -0.000000 -0.000000 0.000000 -0.000000 -0.000000 0.000000 -0.000000 -0.000000 -0.000001 0.000000 -0.000000 0.000000 -0.000000 -0.000000 -0.000001 0.000000 -0.000000 0.000000 -0.000000 -0.000000 0.000000 -0.000000 0.653704 -4.288975 -11.289510 -39.301807 -4.879322 -22.512312 -0.000007 -38.634910 -0.000015 23.092812 -7.398627 10.346560 4.891662 7.994783 1.884000 10.475103 36.544316 -16.206447 -0.000000 0.000001 0.000000 7.775688 6.956343 -86.152707 10.250108 6.003550 -119.372049 0.000001 0.000001 -0.000003 6.367537 6.864703 -87.274388 9.404162 6.404043 -111.556039 0.000001 -0.000000 -0.000001 3.127828 6.869445 -89.819651 9.007621 6.545916 -108.040738 0.000001 -0.000000 -0.000001 1.160408 7.315442 -94.148427 8.017702 2.700468 -99.510720 -0.000001 -0.000003 0.000004 0.000004 -0.000001 -0.000002 0.801962 4.286459 7.810949 -18.162865 -13.870349 31.041646 0.000282 84.447619 -0.000352 10.568550 4.148005 -15.766211 2.101954 -10.083008 3.633756 25.660763 -30.716693 6.844839 0.000000 0.000000 -0.000000 9.556177 -7.137721 86.157912 10.350182 -6.061971 119.375533 0.000001 0.000000 -0.000001 6.610160 -6.940063 87.289442 9.494162 -6.467119 111.542617 0.000000 0.000000 -0.000001 1.946397 -7.142763 92.181135 8.379092 -6.800026 101.912337 0.000001 0.000001 -0.000003 -2.850684 -7.674980 94.127458 8.100969 -6.852409 99.572677 0.000002 0.000000 -0.000001 0.000002 0.000001 0.000001 -0.000001 0.000000 -0.000001 0.000001 -0.000002 -0.000001 -0.000001 0.000000 -0.000001 -0.000001 0.000000 -0.000001 -0.000001 0.000000 -0.000001 0.000001 -0.000002 -0.000000 -0.000001 0.000000 -0.000001 -0.000001 0.000000 -0.000001 -0.000001 0.000000 -0.000001 0.000001 -0.000002 -0.000000 -0.000000 0.000001 0.000000 -0.000000 0.000001 0.000000 -0.000000 0.000001 0.000000 
-1.563648 61.825775 0.581180 -7.206099 -57.174725 -6.328076 0.000000 -0.000001 -0.000000 -33.960319 12.907429 31.304034 52.137214 5.248553 -1.053728 -11.117145 2.455853 -16.956839 0.000000 -0.000002 -0.000000 0.000002 0.000000 0.000001 -27.367368 -7.756980 -18.989458 59.707082 9.765474 -2.103566 -29.662644 -0.802905 9.622951 0.000000 0.000000 -0.000000 -0.000002 -0.000000 0.000000 18.819248 -4.140593 -3.361928 5.152670 -0.918463 -1.055558 5.160333 -0.875750 -1.056320 4.637519 8.159479 -0.872936 -17.781935 45.434299 -8.196004 0.000001 -0.000000 0.000000 0.000001 -0.000000 0.000000 0.000001 -0.000000 0.000000 0.000001 -0.000000 0.000000 0.000001 0.000001 -0.000000 0.000001 -0.000000 0.000000 0.000001 0.000001 -0.000000 0.000001 -0.000000 0.000000 0.000001 -0.000000 0.000000 0.653730 -4.283293 -11.280032 -38.826968 -5.033142 -22.260661 -0.000023 -38.198123 -0.000024 22.331025 -6.940838 10.324093 4.891659 7.994782 1.884000 10.475102 36.544316 -16.206449 0.000000 0.000001 0.000002 7.775688 6.956342 -86.152707 10.250102 6.003549 -119.372049 -0.000001 -0.000001 0.000002 6.368029 6.864721 -87.274361 9.404167 6.404043 -111.556032 0.000000 -0.000000 0.000001 3.127826 6.869443 -89.819651 9.007622 6.545917 -108.040738 -0.000001 0.000001 -0.000001 1.160407 7.315438 -94.148420 8.017705 2.700466 -99.510720 -0.000003 -0.000002 -0.000001 0.000002 -0.000000 0.000001 0.794898 4.213585 7.746686 -18.160595 -13.875389 30.830227 0.000122 83.742532 -0.000095 10.675417 4.559212 -15.792024 2.101960 -10.083011 3.633758 25.660777 -30.716706 6.844844 0.000000 -0.000001 0.000000 9.556184 -7.137727 86.157932 10.350184 -6.061967 119.375560 -0.000000 0.000001 0.000000 6.610160 -6.940064 87.289415 9.494167 -6.467114 111.542665 0.000001 0.000001 -0.000001 1.946399 -7.142766 92.181135 8.379089 -6.800022 101.912324 -0.000001 -0.000000 -0.000001 -2.850674 -7.674992 94.127486 8.100968 -6.852409 99.572677 -0.000003 0.000001 0.000001 0.000000 0.000000 0.000001 0.000001 -0.000001 -0.000000 0.000001 -0.000001 -0.000000 0.000001 -0.000001 -0.000000 0.000001 -0.000001 -0.000000 0.000001 -0.000001 -0.000000 0.000001 -0.000001 -0.000000 0.000001 -0.000001 -0.000000 0.000001 -0.000001 -0.000000 0.000001 -0.000001 -0.000000 0.000001 -0.000001 -0.000000 0.000000 -0.000001 -0.000000 0.000000 -0.000001 -0.000000 0.000000 -0.000001 -0.000000 
-1.638684 61.858521 0.516202 -7.314579 -57.273455 -6.401670 0.000000 -0.000005 -0.000000 -33.724435 12.952257 31.292901 51.868146 5.391015 -0.977445 -10.968783 2.447556 -17.132596 -0.000000 -0.000000 0.000000 -0.000000 0.000002 -0.000001 -27.300517 -7.800201 -18.922634 59.680936 9.764589 -2.093103 -29.678873 -0.697762 9.516908 0.000000 0.000002 0.000000 0.000002 -0.000001 -0.000000 18.774107 -4.239577 -3.397601 5.141608 -0.943959 -1.068473 5.149600 -0.901187 -1.069020 4.651536 8.175580 -0.922542 -17.848208 45.484788 -8.198897 0.000001 0.000000 0.000000 0.000001 0.000000 0.000000 0.000001 0.000000 0.000000 0.000001 0.000000 0.000000 0.000001 0.000001 0.000000 0.000001 0.000000 0.000000 0.000001 0.000001 0.000000 0.000001 0.000000 0.000000 0.000001 0.000000 0.000000 0.653841 -4.264672 -11.246054 -37.907704 -5.314469 -21.887886 -0.000007 -37.517587 -0.000000 21.096142 -6.480326 10.418643 4.891661 7.994783 1.884004 10.475098 36.544316 -16.206447 0.000001 0.000001 -0.000001 7.775688 6.956344 -86.152707 10.250107 6.003551 -119.372049 0.000002 0.000002 -0.000003 6.369447 6.864807 -87.274361 9.404166 6.404046 -111.556032 0.000000 0.000001 -0.000001 3.127829 6.869445 -89.819651 9.007629 6.545918 -108.040731 0.000000 0.000000 0.000001 1.160408 7.315440 -94.148420 8.017700 2.700469 -99.510720 -0.000000 -0.000004 0.000002 0.000002 0.000002 -0.000000 0.788987 4.139556 7.669596 -18.150953 -13.799514 30.557969 0.000143 82.747482 -0.000177 10.823787 4.965967 -15.848211 2.101958 -10.083010 3.633755 25.660749 -30.716689 6.844833 -0.000001 0.000000 0.000000 9.556178 -7.137728 86.157891 10.350181 -6.061967 119.375533 0.000000 0.000000 -0.000001 6.610161 -6.940068 87.289421 9.494168 -6.467119 111.542645 -0.000000 0.000000 -0.000003 1.946392 -7.142770 92.181135 8.379094 -6.800026 101.912324 -0.000001 -0.000001 0.000001 -2.850676 -7.674985 94.127479 8.100971 -6.852413 99.572704 -0.000000 0.000001 0.000001 0.000001 -0.000000 0.000001 -0.000000 0.000001 -0.000000 0.000001 -0.000000 0.000001 -0.000000 0.000001 -0.000000 -0.000000 0.000001 -0.000000 -0.000000 0.000001 -0.000000 0.000001 -0.000000 0.000002 -0.000000 0.000001 -0.000000 -0.000000 0.000001 -0.000000 -0.000000 0.000001 -0.000000 0.000001 -0.000000 0.000002 0.000000 -0.000005 -0.000000 0.000000 -0.000005 -0.000000 0.000000 -0.000005 -0.000000 
-1.720365 61.894638 0.447862 -7.458112 -57.392468 -6.520549 -0.000000 -0.000003 -0.000000 -33.462227 13.005434 31.301370 51.581920 5.536182 -0.887867 -10.814285 2.447594 -17.325065 -0.000000 -0.000000 0.000000 0.000001 0.000001 0.000001 -27.223563 -7.890264 -18.859611 59.642701 9.763578 -2.080289 -29.690074 -0.526665 9.403330 -0.000000 -0.000000 -0.000000 -0.000002 -0.000002 -0.000001 18.713625 -4.329478 -3.417738 5.126404 -0.967317 -1.076380 5.134766 -0.924246 -1.076617 4.742254 8.189083 -0.999488 -17.963520 45.538835 -8.134427 0.000000 0.000000 0.000000 0.000000 0.000000 0.000000 0.000000 0.000000 0.000000 0.000000 0.000000 -0.000000 0.000001 0.000000 -0.000000 0.000000 0.000000 -0.000000 0.000001 0.000000 -0.000000 0.000000 0.000000 0.000000 0.000000 0.000000 0.000000 0.653897 -4.236052 -11.195612 -36.143117 -5.996830 -21.341211 -0.000006 -36.457412 -0.000006 19.030512 -5.988368 10.150644 4.891660 7.994786 1.884005 10.475100 36.544316 -16.206451 -0.000000 0.000002 -0.000000 7.775688 6.956341 -86.152707 10.250111 6.003550 -119.372049 0.000002 0.000001 -0.000002 6.371769 6.864889 -87.274347 9.404165 6.404044 -111.556032 0.000002 0.000002 -0.000004 3.127829 6.869444 -89.819651 9.007627 6.545916 -108.040731 -0.000000 0.000001 -0.000001 1.160407 7.315442 -94.148420 8.017703 2.700467 -99.510720 -0.000001 0.000003 -0.000000 -0.000003 0.000000 -0.000002 0.785223 4.075257 7.585434 -18.004667 -13.634518 30.212693 0.000033 81.495686 -0.000054 11.055612 5.318492 -16.104632 2.101959 -10.083004 3.633758 25.660766 -30.716713 6.844841 0.000000 0.000000 0.000000 9.556182 -7.137727 86.157912 10.350185 -6.061966 119.375519 -0.000002 0.000001 -0.000001 6.610163 -6.940061 87.289408 9.494164 -6.467118 111.542624 0.000001 0.000000 0.000001 1.946396 -7.142764 92.181135 8.379087 -6.800026 101.912310 -0.000001 -0.000000 0.000001 -2.850681 -7.674986 94.127479 8.100969 -6.852412 99.572704 -0.000000 0.000001 0.000001 -0.000003 -0.000001 0.000000 -0.000002 0.000001 -0.000000 0.000000 0.000000 0.000001 -0.000002 0.000001 -0.000000 -0.000002 0.000001 -0.000000 -0.000002 0.000001 -0.000000 0.000000 0.000000 0.000001 -0.000002 0.000001 -0.000000 -0.000002 0.000001 -0.000000 -0.000002 0.000001 -0.000000 0.000000 0.000000 0.000001 -0.000000 -0.000003 -0.000000 -0.000000 -0.000003 -0.000000 -0.000000 -0.000003 -0.000000 
